# File created by Blade
# Date/Time:  Tue Apr 07 20:22:14 2015
# Frame Rate: 120.000 fps
#------------------------------------------------------
:FULLY-SPECIFIED
:DEGREES
1396
root 0.389893 32.809073 -11.890393 18.405905 0.589941 0.220568
Spine -3.228086 -3.009990 1.168758
Head 32.548536 -5.470871 -1.041017
LeftShoulder -17.486017 46.935362 7.351730
LeftArm 47.931946 -3.794143 -91.818829
LeftForeArm -3.098405 -0.000000 38.767160
LeftHand 10.053184 -0.000000 11.361344
LeftHandThumb1 -26.253704 0.000000 33.147579
RightShoulder -3.913423 -8.109510 -16.885776
RightArm 12.087208 3.500418 85.766675
RightForeArm 1.424020 -0.000000 31.805150
RightHand 6.171563 -0.000000 2.731533
RightHandThumb1 -24.326973 -0.000000 -32.862282
LeftUpLeg -19.987765 -5.811586 2.556378
LeftLeg 1.808296 -0.000000 -0.000000
LeftFoot -3.821045 10.460092 -14.399779
LeftToeBase -7.822085 -0.000000 0.000000
RightUpLeg -17.720524 -3.440878 2.395288
RightLeg -3.007445 -0.000000 0.000000
RightFoot -3.257180 -4.145888 4.527327
RightToeBase 2.922085 -0.000000 -0.000000
1397
root 0.380583 32.808943 -11.901515 18.437164 0.693083 0.219367
Spine -3.163431 -3.037510 1.211784
Head 32.664351 -5.546886 -1.024151
LeftShoulder -17.523466 46.922143 7.322459
LeftArm 48.014945 -3.511597 -91.722208
LeftForeArm -3.109787 0.000000 38.507803
LeftHand 10.132809 -0.000000 11.783519
LeftHandThumb1 -26.253704 0.000000 33.147579
RightShoulder -3.940504 -8.089283 -16.885649
RightArm 12.121183 3.313984 85.994753
RightForeArm 1.459102 -0.000000 31.736664
RightHand 6.227180 -0.000000 2.659104
RightHandThumb1 -24.326973 -0.000000 -32.862282
LeftUpLeg -20.210546 -5.930485 2.616395
LeftLeg 2.140717 -0.000000 -0.000000
LeftFoot -3.963663 10.482678 -14.406551
LeftToeBase -7.836615 -0.000000 0.000000
RightUpLeg -17.822543 -3.558148 2.464945
RightLeg -2.895844 -0.000000 0.000000
RightFoot -3.294565 -4.149576 4.413959
RightToeBase 2.911795 -0.000000 -0.000000
1398
root 0.369658 32.808712 -11.914372 18.474325 0.810131 0.201357
Spine -3.107053 -3.064356 1.277277
Head 32.794863 -5.637915 -1.022493
LeftShoulder -17.536091 46.893243 7.321371
LeftArm 48.062353 -3.245617 -91.640068
LeftForeArm -3.219847 -0.000000 38.258639
LeftHand 10.278647 0.000000 11.987495
LeftHandThumb1 -26.253704 0.000000 33.147579
RightShoulder -3.965203 -8.058499 -16.897466
RightArm 12.129516 3.149307 86.230838
RightForeArm 1.488501 -0.000000 31.690539
RightHand 6.188084 0.000000 2.710819
RightHandThumb1 -24.326973 -0.000000 -32.862282
LeftUpLeg -20.482699 -6.052139 2.697934
LeftLeg 2.556818 -0.000000 -0.000000
LeftFoot -4.147137 10.484884 -14.400289
LeftToeBase -7.896001 -0.000000 0.000000
RightUpLeg -17.907979 -3.633167 2.530730
RightLeg -2.833138 -0.000000 0.000000
RightFoot -3.310255 -4.149205 4.401424
RightToeBase 2.974453 -0.000000 -0.000000
1399
root 0.360958 32.808291 -11.927424 18.523014 0.942181 0.207086
Spine -3.062693 -3.096343 1.326639
Head 32.913629 -5.749822 -1.032397
LeftShoulder -17.538823 46.862789 7.317591
LeftArm 48.105138 -3.019685 -91.600317
LeftForeArm -3.279273 -0.000000 38.061563
LeftHand 10.391535 0.000000 12.103085
LeftHandThumb1 -26.253704 0.000000 33.147579
RightShoulder -3.981319 -8.043135 -16.915932
RightArm 12.127477 3.015124 86.477565
RightForeArm 1.545420 -0.000000 31.626222
RightHand 6.204122 -0.000000 2.752047
RightHandThumb1 -24.326973 -0.000000 -32.862282
LeftUpLeg -20.779027 -6.284663 2.794364
LeftLeg 2.983881 -0.000000 -0.000000
LeftFoot -4.347629 10.555208 -14.460002
LeftToeBase -7.868154 -0.000000 0.000000
RightUpLeg -18.011122 -3.739671 2.578771
RightLeg -2.754209 -0.000000 0.000000
RightFoot -3.349073 -4.148947 4.395260
RightToeBase 2.976259 -0.000000 -0.000000
1400
root 0.350603 32.807134 -11.939436 18.555437 1.072086 0.204700
Spine -3.000487 -3.119277 1.376666
Head 33.020474 -5.869327 -1.021363
LeftShoulder -17.555323 46.844911 7.310695
LeftArm 48.153594 -2.795700 -91.570980
LeftForeArm -3.306219 -0.000000 37.890386
LeftHand 10.389332 -0.000000 12.304407
LeftHandThumb1 -26.253704 0.000000 33.147579
RightShoulder -3.996691 -8.045840 -16.926684
RightArm 12.134403 2.869140 86.705874
RightForeArm 1.634365 -0.000000 31.550550
RightHand 6.109382 0.000000 2.796405
RightHandThumb1 -24.326973 -0.000000 -32.862282
LeftUpLeg -21.063759 -6.555047 2.912046
LeftLeg 3.424629 -0.000000 -0.000000
LeftFoot -4.568212 10.678839 -14.514034
LeftToeBase -7.887944 -0.000000 0.000000
RightUpLeg -18.106309 -3.896251 2.652815
RightLeg -2.657128 -0.000000 0.000000
RightFoot -3.390119 -4.079876 4.361427
RightToeBase 2.947097 -0.000000 -0.000000
1401
root 0.343468 32.806585 -11.953603 18.611622 1.214137 0.239367
Spine -2.967416 -3.147564 1.399786
Head 33.142511 -5.983626 -1.020324
LeftShoulder -17.520871 46.799678 7.340354
LeftArm 48.140247 -2.594763 -91.540380
LeftForeArm -3.378281 -0.000000 37.777031
LeftHand 10.459482 -0.000000 12.387946
LeftHandThumb1 -26.253704 0.000000 33.147579
RightShoulder -4.030841 -8.086944 -16.944662
RightArm 12.191310 2.717736 86.932667
RightForeArm 1.810786 -0.000000 31.413563
RightHand 6.350816 -0.000000 2.704289
RightHandThumb1 -24.326973 -0.000000 -32.862282
LeftUpLeg -21.451735 -6.745231 2.965105
LeftLeg 4.021407 -0.000000 -0.000000
LeftFoot -4.810494 10.667348 -14.586245
LeftToeBase -7.862850 -0.000000 0.000000
RightUpLeg -18.203654 -4.009491 2.663351
RightLeg -2.604167 -0.000000 0.000000
RightFoot -3.424109 -4.060758 4.415884
RightToeBase 2.948940 -0.000000 -0.000000
1402
root 0.330711 32.806625 -11.968734 18.668904 1.386736 0.248739
Spine -2.929660 -3.196840 1.440299
Head 33.248223 -6.122598 -1.003349
LeftShoulder -17.504340 46.771230 7.355736
LeftArm 48.144005 -2.399063 -91.489745
LeftForeArm -3.443855 -0.000000 37.698038
LeftHand 10.501440 0.000000 12.538109
LeftHandThumb1 -26.253704 0.000000 33.147579
RightShoulder -4.057679 -8.098963 -16.949741
RightArm 12.218838 2.534669 87.146577
RightForeArm 1.981691 -0.000000 31.265397
RightHand 6.188270 -0.000000 2.806479
RightHandThumb1 -24.326973 -0.000000 -32.862282
LeftUpLeg -21.983527 -6.634121 2.919987
LeftLeg 4.927810 -0.000000 -0.000000
LeftFoot -5.066559 10.452335 -14.403510
LeftToeBase -7.960325 -0.000000 0.000000
RightUpLeg -18.350574 -4.269218 2.758062
RightLeg -2.460360 -0.000000 0.000000
RightFoot -3.486099 -3.879917 4.400000
RightToeBase 2.966096 -0.000000 -0.000000
1403
root 0.323461 32.805417 -11.984396 18.719507 1.553553 0.286119
Spine -2.882539 -3.261571 1.464721
Head 33.343813 -6.219783 -0.997612
LeftShoulder -17.546055 46.751969 7.326043
LeftArm 48.158407 -2.207327 -91.451199
LeftForeArm -3.531324 -0.000000 37.647455
LeftHand 10.466448 -0.000000 12.596081
LeftHandThumb1 -26.253704 0.000000 33.147579
RightShoulder -4.050468 -8.049209 -16.986616
RightArm 12.180275 2.386582 87.361162
RightForeArm 2.160780 -0.000000 31.079975
RightHand 6.276083 -0.000000 2.805489
RightHandThumb1 -24.326973 -0.000000 -32.862282
LeftUpLeg -22.459697 -6.863602 2.984410
LeftLeg 5.709428 -0.000000 -0.000000
LeftFoot -5.363517 10.435570 -14.522709
LeftToeBase -7.985291 -0.000000 0.000000
RightUpLeg -18.479796 -4.505608 2.802686
RightLeg -2.337207 -0.000000 0.000000
RightFoot -3.557454 -3.742115 4.433548
RightToeBase 2.934313 -0.000000 -0.000000
1404
root 0.318053 32.803797 -12.002404 18.774004 1.751566 0.339994
Spine -2.827929 -3.325389 1.488053
Head 33.408193 -6.341384 -1.002454
LeftShoulder -17.541396 46.710829 7.327489
LeftArm 48.149717 -2.012936 -91.413701
LeftForeArm -3.573653 0.000000 37.630439
LeftHand 10.593986 0.000000 12.679586
LeftHandThumb1 -26.253704 0.000000 33.147579
RightShoulder -4.081018 -7.995361 -17.033352
RightArm 12.143121 2.247993 87.574779
RightForeArm 2.320351 -0.000000 30.874919
RightHand 6.152552 -0.000000 2.959859
RightHandThumb1 -24.326973 -0.000000 -32.862282
LeftUpLeg -22.961001 -7.155536 3.063296
LeftLeg 6.516148 -0.000000 -0.000000
LeftFoot -5.757367 10.394921 -14.862892
LeftToeBase -7.598703 -0.000000 0.000000
RightUpLeg -18.616449 -4.767132 2.827654
RightLeg -2.203676 -0.000000 0.000000
RightFoot -3.656524 -3.565661 4.435411
RightToeBase 2.988643 -0.000000 -0.000000
1405
root 0.311168 32.801099 -12.020440 18.821197 1.951917 0.368188
Spine -2.764922 -3.385808 1.536030
Head 33.479508 -6.466163 -1.007023
LeftShoulder -17.536555 46.653906 7.347318
LeftArm 48.117652 -1.818263 -91.378274
LeftForeArm -3.614210 -0.000000 37.617230
LeftHand 10.674795 -0.000000 12.843171
LeftHandThumb1 -26.253704 0.000000 33.147579
RightShoulder -4.110654 -7.963340 -17.076733
RightArm 12.137533 2.070772 87.751271
RightForeArm 2.541462 -0.000000 30.633285
RightHand 6.311151 0.000000 2.918149
RightHandThumb1 -24.326973 -0.000000 -32.862282
LeftUpLeg -23.527976 -7.338222 3.127363
LeftLeg 7.474336 -0.000000 -0.000000
LeftFoot -5.987498 10.269177 -14.881940
LeftToeBase -7.966386 -0.000000 0.000000
RightUpLeg -18.626681 -4.744671 2.796047
RightLeg -2.315589 -0.000000 0.000000
RightFoot -3.622167 -3.749117 4.463990
RightToeBase 2.987780 -0.000000 -0.000000
1406
root 0.300228 32.799579 -12.040263 18.894251 2.188065 0.352490
Spine -2.729266 -3.457306 1.642158
Head 33.530513 -6.583769 -1.021541
LeftShoulder -17.576469 46.658982 7.306787
LeftArm 48.157654 -1.642188 -91.355046
LeftForeArm -3.549650 0.000000 37.640455
LeftHand 10.740002 0.000000 13.013906
LeftHandThumb1 -26.253704 0.000000 33.147579
RightShoulder -4.139267 -7.930493 -17.129890
RightArm 12.123230 1.938292 87.944441
RightForeArm 2.701606 0.000000 30.366154
RightHand 6.186618 -0.000000 3.048536
RightHandThumb1 -24.326973 -0.000000 -32.862282
LeftUpLeg -24.184066 -7.528658 3.268390
LeftLeg 8.545758 -0.000000 -0.000000
LeftFoot -6.309711 10.052035 -15.116209
LeftToeBase -8.105196 -0.000000 0.000000
RightUpLeg -18.611426 -4.617266 2.766385
RightLeg -2.525972 -0.000000 0.000000
RightFoot -3.532967 -3.982037 4.666378
RightToeBase 3.113107 -0.000000 -0.000000
1407
root 0.295661 32.797035 -12.061388 18.950157 2.438316 0.384629
Spine -2.662014 -3.521675 1.715039
Head 33.546732 -6.740620 -1.068113
LeftShoulder -17.566166 46.617507 7.315270
LeftArm 48.174579 -1.470133 -91.350972
LeftForeArm -3.483734 -0.000000 37.636388
LeftHand 10.809772 -0.000000 13.230609
LeftHandThumb1 -26.253704 0.000000 33.147579
RightShoulder -4.182667 -7.880955 -17.183985
RightArm 12.085960 1.809292 88.090742
RightForeArm 2.912120 -0.000000 30.093914
RightHand 6.296143 0.000000 3.162365
RightHandThumb1 -24.326973 -0.000000 -32.862282
LeftUpLeg -24.838025 -7.841418 3.394071
LeftLeg 9.627125 -0.000000 -0.000000
LeftFoot -6.644396 9.908673 -15.427739
LeftToeBase -8.213586 -0.000000 0.000000
RightUpLeg -18.687958 -4.778079 2.792383
RightLeg -2.534408 -0.000000 0.000000
RightFoot -3.538290 -4.027976 4.716680
RightToeBase 3.069119 -0.000000 -0.000000
